<?xml version="1.0" encoding="utf-8"?><svg xmlns="http://www.w3.org/2000/svg" xmlns:xlink="http://www.w3.org/1999/xlink" width="764" height="978" preserveAspectRatio="xMidYMid" viewBox="0 0 764 978" style="z-index:1;margin-right:-2px;display:block;background-repeat-y:initial;background-repeat-x:initial;background-color:rgb(221, 221, 221);animation-play-state:paused" ><g transform="" style="animation-play-state:paused" ><g id="bk-0.37320470500726843" style="animation-play-state:paused" ><path d="M 382 488 L 463 669 L 564 625 Z" stroke="#c2d7f6" fill="#c2d7f6" style="animation-play-state:paused" ></path>
<path d="M 564 625 L 497 551 L 382 488 Z" stroke="#c9dcf8" fill="#c9dcf8" style="animation-play-state:paused" ></path>
<path d="M 407 728 L 531 683 L 564 625 Z" stroke="#a0bef1" fill="#a0bef1" style="animation-play-state:paused" ></path>
<path d="M 463 669 L 407 728 L 564 625 Z" stroke="#a9c5f2" fill="#a9c5f2" style="animation-play-state:paused" ></path>
<path d="M 710 671 L 693 486 L 564 625 Z" stroke="#8aacec" fill="#8aacec" style="animation-play-state:paused" ></path>
<path d="M 564 625 L 693 486 L 497 551 Z" stroke="#a9c4f2" fill="#a9c4f2" style="animation-play-state:paused" ></path>
<path d="M 270 410 L 365 644 L 463 669 Z" stroke="#eef5fe" fill="#eef5fe" style="animation-play-state:paused" ></path>
<path d="M 463 669 L 285 687 L 407 728 Z" stroke="#c7dbf7" fill="#c7dbf7" style="animation-play-state:paused" ></path>
<path d="M 531 683 L 710 671 L 564 625 Z" stroke="#85a9eb" fill="#85a9eb" style="animation-play-state:paused" ></path>
<path d="M 424 396 L 270 410 L 382 488 Z" stroke="#fafafa" fill="#fafafa" style="animation-play-state:paused" ></path>
<path d="M 382 488 L 270 410 L 463 669 Z" stroke="#fafafa" fill="#fafafa" style="animation-play-state:paused" ></path>
<path d="M 566 362 L 557 405 L 497 551 Z" stroke="#dae8fb" fill="#dae8fb" style="animation-play-state:paused" ></path>
<path d="M 497 551 L 557 405 L 382 488 Z" stroke="#e0ecfb" fill="#e0ecfb" style="animation-play-state:paused" ></path>
<path d="M 557 405 L 416 468 L 382 488 Z" stroke="#f3f8fe" fill="#f3f8fe" style="animation-play-state:paused" ></path>
<path d="M 365 644 L 285 687 L 463 669 Z" stroke="#d4e3f9" fill="#d4e3f9" style="animation-play-state:paused" ></path>
<path d="M 416 468 L 424 396 L 382 488 Z" stroke="#fafafa" fill="#fafafa" style="animation-play-state:paused" ></path>
<path d="M 603 805 L 704 630 L 531 683 Z" stroke="#769ce8" fill="#769ce8" style="animation-play-state:paused" ></path>
<path d="M 531 683 L 704 630 L 710 671 Z" stroke="#789ee8" fill="#789ee8" style="animation-play-state:paused" ></path>
<path d="M 706 371 L 566 362 L 693 486 Z" stroke="#c7daf7" fill="#c7daf7" style="animation-play-state:paused" ></path>
<path d="M 693 486 L 566 362 L 497 551 Z" stroke="#c4d9f7" fill="#c4d9f7" style="animation-play-state:paused" ></path>
<path d="M 779 738 L 715 525 L 710 671 Z" stroke="#6891e5" fill="#6891e5" style="animation-play-state:paused" ></path>
<path d="M 710 671 L 715 525 L 693 486 Z" stroke="#88abec" fill="#88abec" style="animation-play-state:paused" ></path>
<path d="M 404 770 L 384 803 L 407 728 Z" stroke="#b2cbf4" fill="#b2cbf4" style="animation-play-state:paused" ></path>
<path d="M 407 728 L 384 803 L 531 683 Z" stroke="#a8c4f2" fill="#a8c4f2" style="animation-play-state:paused" ></path>
<path d="M 306 476 L 217 425 L 270 410 Z" stroke="#fbfbfb" fill="#fbfbfb" style="animation-play-state:paused" ></path>
<path d="M 270 410 L 217 425 L 365 644 Z" stroke="#fbfbfb" fill="#fbfbfb" style="animation-play-state:paused" ></path>
<path d="M 365 644 L 264 585 L 285 687 Z" stroke="#f9f9f9" fill="#f9f9f9" style="animation-play-state:paused" ></path>
<path d="M 217 425 L 264 585 L 365 644 Z" stroke="#fafafa" fill="#fafafa" style="animation-play-state:paused" ></path>
<path d="M 715 525 L 774 416 L 693 486 Z" stroke="#9fbdf0" fill="#9fbdf0" style="animation-play-state:paused" ></path>
<path d="M 384 803 L 592 889 L 531 683 Z" stroke="#85a9eb" fill="#85a9eb" style="animation-play-state:paused" ></path>
<path d="M 557 405 L 381 291 L 416 468 Z" stroke="#fafafa" fill="#fafafa" style="animation-play-state:paused" ></path>
<path d="M 416 468 L 399 237 L 424 396 Z" stroke="#fafafa" fill="#fafafa" style="animation-play-state:paused" ></path>
<path d="M 424 396 L 306 476 L 270 410 Z" stroke="#fbfbfb" fill="#fbfbfb" style="animation-play-state:paused" ></path>
<path d="M 615 364 L 381 291 L 557 405 Z" stroke="#fafafa" fill="#fafafa" style="animation-play-state:paused" ></path>
<path d="M 673 291 L 615 364 L 566 362 Z" stroke="#e8f1fd" fill="#e8f1fd" style="animation-play-state:paused" ></path>
<path d="M 566 362 L 615 364 L 557 405 Z" stroke="#e5effc" fill="#e5effc" style="animation-play-state:paused" ></path>
<path d="M 285 687 L 404 770 L 407 728 Z" stroke="#c7dbf7" fill="#c7dbf7" style="animation-play-state:paused" ></path>
<path d="M 277 716 L 404 770 L 285 687 Z" stroke="#dbe8fb" fill="#dbe8fb" style="animation-play-state:paused" ></path>
<path d="M 592 889 L 603 805 L 531 683 Z" stroke="#6c94e6" fill="#6c94e6" style="animation-play-state:paused" ></path>
<path d="M 704 630 L 779 738 L 710 671 Z" stroke="#5e89e2" fill="#5e89e2" style="animation-play-state:paused" ></path>
<path d="M 264 585 L 277 716 L 285 687 Z" stroke="#fafafa" fill="#fafafa" style="animation-play-state:paused" ></path>
<path d="M 715 861 L 779 738 L 704 630 Z" stroke="#4b79dd" fill="#4b79dd" style="animation-play-state:paused" ></path>
<path d="M 715 525 L 795 480 L 774 416 Z" stroke="#9ab9ef" fill="#9ab9ef" style="animation-play-state:paused" ></path>
<path d="M 774 416 L 706 371 L 693 486 Z" stroke="#b2cbf4" fill="#b2cbf4" style="animation-play-state:paused" ></path>
<path d="M 706 371 L 673 291 L 566 362 Z" stroke="#e0ecfb" fill="#e0ecfb" style="animation-play-state:paused" ></path>
<path d="M 399 237 L 306 476 L 424 396 Z" stroke="#fbfbfb" fill="#fbfbfb" style="animation-play-state:paused" ></path>
<path d="M 217 425 L 47 567 L 264 585 Z" stroke="#fbfbfb" fill="#fbfbfb" style="animation-play-state:paused" ></path>
<path d="M 406 153 L 399 237 L 381 291 Z" stroke="#fcfcfc" fill="#fcfcfc" style="animation-play-state:paused" ></path>
<path d="M 381 291 L 399 237 L 416 468 Z" stroke="#fbfbfb" fill="#fbfbfb" style="animation-play-state:paused" ></path>
<path d="M 603 805 L 715 861 L 704 630 Z" stroke="#5481e0" fill="#5481e0" style="animation-play-state:paused" ></path>
<path d="M 454 909 L 515 894 L 384 803 Z" stroke="#89abec" fill="#89abec" style="animation-play-state:paused" ></path>
<path d="M 384 803 L 515 894 L 592 889 Z" stroke="#789ee8" fill="#789ee8" style="animation-play-state:paused" ></path>
<path d="M 592 889 L 607 868 L 603 805 Z" stroke="#5582e0" fill="#5582e0" style="animation-play-state:paused" ></path>
<path d="M 603 805 L 662 812 L 715 861 Z" stroke="#4877dd" fill="#4877dd" style="animation-play-state:paused" ></path>
<path d="M 311 905 L 454 909 L 384 803 Z" stroke="#a3c0f1" fill="#a3c0f1" style="animation-play-state:paused" ></path>
<path d="M 81 732 L 189 735 L 277 716 Z" stroke="#fafafa" fill="#fafafa" style="animation-play-state:paused" ></path>
<path d="M 277 716 L 189 735 L 404 770 Z" stroke="#e5effc" fill="#e5effc" style="animation-play-state:paused" ></path>
<path d="M 404 770 L 311 905 L 384 803 Z" stroke="#b3ccf4" fill="#b3ccf4" style="animation-play-state:paused" ></path>
<path d="M 868 634 L 795 480 L 715 525 Z" stroke="#7ca1e9" fill="#7ca1e9" style="animation-play-state:paused" ></path>
<path d="M 774 416 L 795 480 L 706 371 Z" stroke="#acc7f3" fill="#acc7f3" style="animation-play-state:paused" ></path>
<path d="M 706 371 L 802 347 L 673 291 Z" stroke="#d1e2f9" fill="#d1e2f9" style="animation-play-state:paused" ></path>
<path d="M 868 634 L 715 525 L 872 682 Z" stroke="#628ce3" fill="#628ce3" style="animation-play-state:paused" ></path>
<path d="M 399 237 L 210 346 L 306 476 Z" stroke="#fbfbfb" fill="#fbfbfb" style="animation-play-state:paused" ></path>
<path d="M 872 682 L 715 525 L 779 738 Z" stroke="#5c87e2" fill="#5c87e2" style="animation-play-state:paused" ></path>
<path d="M 187 438 L 47 567 L 217 425 Z" stroke="#fcfcfc" fill="#fcfcfc" style="animation-play-state:paused" ></path>
<path d="M 264 585 L 119 656 L 277 716 Z" stroke="#fafafa" fill="#fafafa" style="animation-play-state:paused" ></path>
<path d="M 187 438 L 217 425 L 231 409 Z" stroke="#fcfcfc" fill="#fcfcfc" style="animation-play-state:paused" ></path>
<path d="M 879 428 L 802 347 L 706 371 Z" stroke="#b4cdf4" fill="#b4cdf4" style="animation-play-state:paused" ></path>
<path d="M 544 109 L 386 196 L 615 364 Z" stroke="#fbfbfb" fill="#fbfbfb" style="animation-play-state:paused" ></path>
<path d="M 231 409 L 217 425 L 306 476 Z" stroke="#fbfbfb" fill="#fbfbfb" style="animation-play-state:paused" ></path>
<path d="M 544 109 L 615 364 L 696 217 Z" stroke="#fafafa" fill="#fafafa" style="animation-play-state:paused" ></path>
<path d="M 615 364 L 386 196 L 381 291 Z" stroke="#fbfbfb" fill="#fbfbfb" style="animation-play-state:paused" ></path>
<path d="M 399 237 L 311 139 L 210 346 Z" stroke="#fcfcfc" fill="#fcfcfc" style="animation-play-state:paused" ></path>
<path d="M 696 217 L 615 364 L 673 291 Z" stroke="#f0f6fe" fill="#f0f6fe" style="animation-play-state:paused" ></path>
<path d="M 817 770 L 872 682 L 779 738 Z" stroke="#3a6cd9" fill="#3a6cd9" style="animation-play-state:paused" ></path>
<path d="M 100 392 L 231 409 L 306 476 Z" stroke="#fcfcfc" fill="#fcfcfc" style="animation-play-state:paused" ></path>
<path d="M 189 735 L 311 905 L 404 770 Z" stroke="#d3e3f9" fill="#d3e3f9" style="animation-play-state:paused" ></path>
<path d="M 47 567 L 119 656 L 264 585 Z" stroke="#fbfbfb" fill="#fbfbfb" style="animation-play-state:paused" ></path>
<path d="M 189 735 L 294 874 L 311 905 Z" stroke="#deeafb" fill="#deeafb" style="animation-play-state:paused" ></path>
<path d="M 512 1019 L 515 894 L 454 909 Z" stroke="#6c94e5" fill="#6c94e5" style="animation-play-state:paused" ></path>
<path d="M 511 1013 L 607 868 L 515 894 Z" stroke="#5b86e1" fill="#5b86e1" style="animation-play-state:paused" ></path>
<path d="M 515 894 L 607 868 L 592 889 Z" stroke="#5985e1" fill="#5985e1" style="animation-play-state:paused" ></path>
<path d="M 715 861 L 817 770 L 779 738 Z" stroke="#3166d7" fill="#3166d7" style="animation-play-state:paused" ></path>
<path d="M 795 480 L 879 428 L 706 371 Z" stroke="#a5c1f1" fill="#a5c1f1" style="animation-play-state:paused" ></path>
<path d="M 852 350 L 879 428 L 997 417 Z" stroke="#a1bff1" fill="#a1bff1" style="animation-play-state:paused" ></path>
<path d="M 386 196 L 406 153 L 381 291 Z" stroke="#fcfcfc" fill="#fcfcfc" style="animation-play-state:paused" ></path>
<path d="M 681 247 L 696 217 L 673 291 Z" stroke="#fafafa" fill="#fafafa" style="animation-play-state:paused" ></path>
<path d="M 607 868 L 662 812 L 603 805 Z" stroke="#5380df" fill="#5380df" style="animation-play-state:paused" ></path>
<path d="M 662 812 L 817 770 L 715 861 Z" stroke="#3569d7" fill="#3569d7" style="animation-play-state:paused" ></path>
<path d="M 926 647 L 858 461 L 868 634 Z" stroke="#648de4" fill="#648de4" style="animation-play-state:paused" ></path>
<path d="M 81 732 L 294 874 L 189 735 Z" stroke="#fafafa" fill="#fafafa" style="animation-play-state:paused" ></path>
<path d="M 406 153 L 311 139 L 399 237 Z" stroke="#fcfcfc" fill="#fcfcfc" style="animation-play-state:paused" ></path>
<path d="M 210 346 L 100 392 L 306 476 Z" stroke="#fcfcfc" fill="#fcfcfc" style="animation-play-state:paused" ></path>
<path d="M 70 135 L 100 392 L 210 346 Z" stroke="#fdfdfd" fill="#fdfdfd" style="animation-play-state:paused" ></path>
<path d="M 1 428 L 6 498 L 187 438 Z" stroke="#fdfdfd" fill="#fdfdfd" style="animation-play-state:paused" ></path>
<path d="M 119 656 L 81 732 L 277 716 Z" stroke="#fbfbfb" fill="#fbfbfb" style="animation-play-state:paused" ></path>
<path d="M -14 660 L 81 732 L 119 656 Z" stroke="#fcfcfc" fill="#fcfcfc" style="animation-play-state:paused" ></path>
<path d="M 277 1057 L 512 1019 L 311 905 Z" stroke="#98b7ef" fill="#98b7ef" style="animation-play-state:paused" ></path>
<path d="M 311 905 L 512 1019 L 454 909 Z" stroke="#86a9eb" fill="#86a9eb" style="animation-play-state:paused" ></path>
<path d="M 607 868 L 708 1066 L 662 812 Z" stroke="#3166d6" fill="#3166d6" style="animation-play-state:paused" ></path>
<path d="M 879 428 L 852 350 L 802 347 Z" stroke="#b0caf3" fill="#b0caf3" style="animation-play-state:paused" ></path>
<path d="M 802 347 L 681 247 L 673 291 Z" stroke="#e3edfc" fill="#e3edfc" style="animation-play-state:paused" ></path>
<path d="M 858 461 L 879 428 L 795 480 Z" stroke="#93b4ee" fill="#93b4ee" style="animation-play-state:paused" ></path>
<path d="M 819 219 L 681 247 L 802 347 Z" stroke="#e3eefc" fill="#e3eefc" style="animation-play-state:paused" ></path>
<path d="M 540 171 L 436 133 L 544 109 Z" stroke="#fcfcfc" fill="#fcfcfc" style="animation-play-state:paused" ></path>
<path d="M 926 647 L 868 634 L 863 715 Z" stroke="#4676dc" fill="#4676dc" style="animation-play-state:paused" ></path>
<path d="M 868 634 L 858 461 L 795 480 Z" stroke="#7ca1e9" fill="#7ca1e9" style="animation-play-state:paused" ></path>
<path d="M 544 109 L 436 133 L 386 196 Z" stroke="#fcfcfc" fill="#fcfcfc" style="animation-play-state:paused" ></path>
<path d="M 386 196 L 271 172 L 406 153 Z" stroke="#fcfcfc" fill="#fcfcfc" style="animation-play-state:paused" ></path>
<path d="M 406 153 L 271 172 L 311 139 Z" stroke="#fdfdfd" fill="#fdfdfd" style="animation-play-state:paused" ></path>
<path d="M 540 171 L 544 109 L 696 217 Z" stroke="#fbfbfb" fill="#fbfbfb" style="animation-play-state:paused" ></path>
<path d="M 1 428 L 187 438 L 231 409 Z" stroke="#fcfcfc" fill="#fcfcfc" style="animation-play-state:paused" ></path>
<path d="M 187 438 L 6 498 L 47 567 Z" stroke="#fcfcfc" fill="#fcfcfc" style="animation-play-state:paused" ></path>
<path d="M 47 567 L -14 660 L 119 656 Z" stroke="#fcfcfc" fill="#fcfcfc" style="animation-play-state:paused" ></path>
<path d="M 863 715 L 868 634 L 872 682 Z" stroke="#4574dc" fill="#4574dc" style="animation-play-state:paused" ></path>
<path d="M 512 1019 L 511 1013 L 515 894 Z" stroke="#5f89e2" fill="#5f89e2" style="animation-play-state:paused" ></path>
<path d="M 511 1013 L 681 1056 L 607 868 Z" stroke="#3b6dd9" fill="#3b6dd9" style="animation-play-state:paused" ></path>
<path d="M 950 724 L 872 682 L 817 770 Z" stroke="#3066d6" fill="#3066d6" style="animation-play-state:paused" ></path>
<path d="M 6 498 L -6 539 L 47 567 Z" stroke="#fdfdfd" fill="#fdfdfd" style="animation-play-state:paused" ></path>
<path d="M 679 119 L 540 171 L 696 217 Z" stroke="#fbfbfb" fill="#fbfbfb" style="animation-play-state:paused" ></path>
<path d="M 205 1052 L 311 905 L 294 874 Z" stroke="#caddf8" fill="#caddf8" style="animation-play-state:paused" ></path>
<path d="M 205 1052 L 277 1057 L 311 905 Z" stroke="#c5d9f7" fill="#c5d9f7" style="animation-play-state:paused" ></path>
<path d="M 512 1019 L 368 1013 L 511 1013 Z" stroke="#6c95e6" fill="#6c95e6" style="animation-play-state:paused" ></path>
<path d="M -6 539 L -14 660 L 47 567 Z" stroke="#fdfdfd" fill="#fdfdfd" style="animation-play-state:paused" ></path>
<path d="M 81 732 L 143 834 L 294 874 Z" stroke="#fafafa" fill="#fafafa" style="animation-play-state:paused" ></path>
<path d="M 926 647 L 997 417 L 858 461 Z" stroke="#789ee8" fill="#789ee8" style="animation-play-state:paused" ></path>
<path d="M 858 461 L 997 417 L 879 428 Z" stroke="#93b4ee" fill="#93b4ee" style="animation-play-state:paused" ></path>
<path d="M 852 350 L 819 219 L 802 347 Z" stroke="#cddff8" fill="#cddff8" style="animation-play-state:paused" ></path>
<path d="M 436 133 L 271 172 L 386 196 Z" stroke="#fcfcfc" fill="#fcfcfc" style="animation-play-state:paused" ></path>
<path d="M 69 227 L 1 428 L 100 392 Z" stroke="#fefefe" fill="#fefefe" style="animation-play-state:paused" ></path>
<path d="M 347 -17 L 271 172 L 436 133 Z" stroke="#fdfdfd" fill="#fdfdfd" style="animation-play-state:paused" ></path>
<path d="M 809 30 L 679 119 L 681 247 Z" stroke="#fafafa" fill="#fafafa" style="animation-play-state:paused" ></path>
<path d="M 681 247 L 679 119 L 696 217 Z" stroke="#fafafa" fill="#fafafa" style="animation-play-state:paused" ></path>
<path d="M 950 724 L 863 715 L 872 682 Z" stroke="#3569d8" fill="#3569d8" style="animation-play-state:paused" ></path>
<path d="M 926 647 L 863 715 L 997 417 Z" stroke="#5b86e1" fill="#5b86e1" style="animation-play-state:paused" ></path>
<path d="M 875 908 L 817 770 L 662 812 Z" stroke="#1b5ad2" fill="#1b5ad2" style="animation-play-state:paused" ></path>
<path d="M 100 392 L 1 428 L 231 409 Z" stroke="#fdfdfd" fill="#fdfdfd" style="animation-play-state:paused" ></path>
<path d="M 6 498 L -128 514 L -6 539 Z" stroke="#fefefe" fill="#fefefe" style="animation-play-state:paused" ></path>
<path d="M 70 135 L 210 346 L 311 139 Z" stroke="#fdfdfd" fill="#fdfdfd" style="animation-play-state:paused" ></path>
<path d="M -21 800 L 143 834 L 81 732 Z" stroke="#fbfbfb" fill="#fbfbfb" style="animation-play-state:paused" ></path>
<path d="M 319 51 L 70 135 L 311 139 Z" stroke="#fefefe" fill="#fefefe" style="animation-play-state:paused" ></path>
<path d="M 708 1066 L 875 908 L 662 812 Z" stroke="#1656d0" fill="#1656d0" style="animation-play-state:paused" ></path>
<path d="M 1000 908 L 950 724 L 817 770 Z" stroke="#1656d0" fill="#1656d0" style="animation-play-state:paused" ></path>
<path d="M 1002 207 L 819 219 L 852 350 Z" stroke="#d9e7fa" fill="#d9e7fa" style="animation-play-state:paused" ></path>
<path d="M 730 1068 L 708 1066 L 681 1056 Z" stroke="#1554ce" fill="#1554ce" style="animation-play-state:paused" ></path>
<path d="M 681 1056 L 708 1066 L 607 868 Z" stroke="#1758d1" fill="#1758d1" style="animation-play-state:paused" ></path>
<path d="M 46 992 L 205 1052 L 294 874 Z" stroke="#f2f7fe" fill="#f2f7fe" style="animation-play-state:paused" ></path>
<path d="M 277 1057 L 368 1013 L 512 1019 Z" stroke="#8badec" fill="#8badec" style="animation-play-state:paused" ></path>
<path d="M -14 660 L -21 800 L 81 732 Z" stroke="#fcfcfc" fill="#fcfcfc" style="animation-play-state:paused" ></path>
<path d="M 143 834 L 46 992 L 294 874 Z" stroke="#fafafa" fill="#fafafa" style="animation-play-state:paused" ></path>
<path d="M 997 417 L 1004 356 L 852 350 Z" stroke="#a7c3f2" fill="#a7c3f2" style="animation-play-state:paused" ></path>
<path d="M 1002 207 L 1004 356 L 997 417 Z" stroke="#b7cff5" fill="#b7cff5" style="animation-play-state:paused" ></path>
<path d="M 819 219 L 809 30 L 681 247 Z" stroke="#fafafa" fill="#fafafa" style="animation-play-state:paused" ></path>
<path d="M 679 119 L 529 -72 L 540 171 Z" stroke="#fcfcfc" fill="#fcfcfc" style="animation-play-state:paused" ></path>
<path d="M 70 135 L 69 227 L 100 392 Z" stroke="#fefefe" fill="#fefefe" style="animation-play-state:paused" ></path>
<path d="M 332 -1 L 319 51 L 271 172 Z" stroke="#fdfdfd" fill="#fdfdfd" style="animation-play-state:paused" ></path>
<path d="M 271 172 L 319 51 L 311 139 Z" stroke="#fdfdfd" fill="#fdfdfd" style="animation-play-state:paused" ></path>
<path d="M 70 135 L 96 167 L 69 227 Z" stroke="#ffffff" fill="#ffffff" style="animation-play-state:paused" ></path>
<path d="M 529 -72 L 436 133 L 540 171 Z" stroke="#fcfcfc" fill="#fcfcfc" style="animation-play-state:paused" ></path>
<path d="M 391 1108 L 368 1013 L 277 1057 Z" stroke="#9ab9ef" fill="#9ab9ef" style="animation-play-state:paused" ></path>
<path d="M 511 1013 L 633 1166 L 681 1056 Z" stroke="#225dd3" fill="#225dd3" style="animation-play-state:paused" ></path>
<path d="M 553 1187 L 633 1166 L 511 1013 Z" stroke="#3367d7" fill="#3367d7" style="animation-play-state:paused" ></path>
<path d="M 877 1062 L 1000 908 L 875 908 Z" stroke="#144fcb" fill="#144fcb" style="animation-play-state:paused" ></path>
<path d="M 875 908 L 1000 908 L 817 770 Z" stroke="#1554ce" fill="#1554ce" style="animation-play-state:paused" ></path>
<path d="M 950 724 L 1000 908 L 863 715 Z" stroke="#1657d0" fill="#1657d0" style="animation-play-state:paused" ></path>
<path d="M 851 995 L 875 908 L 708 1066 Z" stroke="#1551cd" fill="#1551cd" style="animation-play-state:paused" ></path>
<path d="M -58 446 L -128 514 L 1 428 Z" stroke="#fefefe" fill="#fefefe" style="animation-play-state:paused" ></path>
<path d="M 1 428 L -128 514 L 6 498 Z" stroke="#fefefe" fill="#fefefe" style="animation-play-state:paused" ></path>
<path d="M -6 539 L -48 715 L -14 660 Z" stroke="#fdfdfd" fill="#fdfdfd" style="animation-play-state:paused" ></path>
<path d="M -14 660 L 0 802 L -21 800 Z" stroke="#fcfcfc" fill="#fcfcfc" style="animation-play-state:paused" ></path>
<path d="M 368 1013 L 553 1187 L 511 1013 Z" stroke="#608ae3" fill="#608ae3" style="animation-play-state:paused" ></path>
<path d="M -128 514 L -31 565 L -6 539 Z" stroke="#fefefe" fill="#fefefe" style="animation-play-state:paused" ></path>
<path d="M 653 -74 L 529 -72 L 679 119 Z" stroke="#fcfcfc" fill="#fcfcfc" style="animation-play-state:paused" ></path>
<path d="M 6 876 L 143 834 L -21 800 Z" stroke="#fbfbfb" fill="#fbfbfb" style="animation-play-state:paused" ></path>
<path d="M 6 876 L 46 992 L 143 834 Z" stroke="#fbfbfb" fill="#fbfbfb" style="animation-play-state:paused" ></path>
<path d="M 290 1065 L 391 1108 L 277 1057 Z" stroke="#a4c1f1" fill="#a4c1f1" style="animation-play-state:paused" ></path>
<path d="M -122 923 L 6 876 L -21 800 Z" stroke="#fcfcfc" fill="#fcfcfc" style="animation-play-state:paused" ></path>
<path d="M 529 -72 L 347 -17 L 436 133 Z" stroke="#fdfdfd" fill="#fdfdfd" style="animation-play-state:paused" ></path>
<path d="M -31 565 L -48 715 L -6 539 Z" stroke="#fdfdfd" fill="#fdfdfd" style="animation-play-state:paused" ></path>
<path d="M 290 1065 L 277 1057 L 205 1052 Z" stroke="#c2d7f7" fill="#c2d7f7" style="animation-play-state:paused" ></path>
<path d="M 451 1239 L 464 1238 L 553 1187 Z" stroke="#4f7cde" fill="#4f7cde" style="animation-play-state:paused" ></path>
<path d="M 922 1101 L 851 995 L 708 1066 Z" stroke="#144ecb" fill="#144ecb" style="animation-play-state:paused" ></path>
<path d="M 1004 356 L 1002 207 L 852 350 Z" stroke="#c2d7f6" fill="#c2d7f6" style="animation-play-state:paused" ></path>
<path d="M 819 219 L 899 13 L 809 30 Z" stroke="#fbfbfb" fill="#fbfbfb" style="animation-play-state:paused" ></path>
<path d="M 863 715 L 1002 207 L 997 417 Z" stroke="#8dafed" fill="#8dafed" style="animation-play-state:paused" ></path>
<path d="M -138 271 L -58 446 L 1 428 Z" stroke="#ffffff" fill="#ffffff" style="animation-play-state:paused" ></path>
<path d="M -128 514 L -99 442 L -31 565 Z" stroke="#fefefe" fill="#fefefe" style="animation-play-state:paused" ></path>
<path d="M 730 1224 L 730 1068 L 633 1166 Z" stroke="#1553cd" fill="#1553cd" style="animation-play-state:paused" ></path>
<path d="M 633 1166 L 730 1068 L 681 1056 Z" stroke="#1654cf" fill="#1654cf" style="animation-play-state:paused" ></path>
<path d="M 966 123 L 899 13 L 819 219 Z" stroke="#fafafa" fill="#fafafa" style="animation-play-state:paused" ></path>
<path d="M 790 12 L 653 -74 L 679 119 Z" stroke="#fcfcfc" fill="#fcfcfc" style="animation-play-state:paused" ></path>
<path d="M 790 12 L 679 119 L 809 30 Z" stroke="#fbfbfb" fill="#fbfbfb" style="animation-play-state:paused" ></path>
<path d="M 529 -72 L 573 -90 L 347 -17 Z" stroke="#fdfdfd" fill="#fdfdfd" style="animation-play-state:paused" ></path>
<path d="M 319 51 L 174 14 L 70 135 Z" stroke="#fefefe" fill="#fefefe" style="animation-play-state:paused" ></path>
<path d="M 69 227 L -138 271 L 1 428 Z" stroke="#ffffff" fill="#ffffff" style="animation-play-state:paused" ></path>
<path d="M 84 -6 L 174 14 L 319 51 Z" stroke="#ffffff" fill="#ffffff" style="animation-play-state:paused" ></path>
<path d="M 174 14 L 96 167 L 70 135 Z" stroke="#ffffff" fill="#ffffff" style="animation-play-state:paused" ></path>
<path d="M 396 -188 L 332 -1 L 347 -17 Z" stroke="#fefefe" fill="#fefefe" style="animation-play-state:paused" ></path>
<path d="M 347 -17 L 332 -1 L 271 172 Z" stroke="#fdfdfd" fill="#fdfdfd" style="animation-play-state:paused" ></path>
<path d="M 141 1120 L 290 1065 L 205 1052 Z" stroke="#d7e5fa" fill="#d7e5fa" style="animation-play-state:paused" ></path>
<path d="M 141 1120 L 205 1052 L 46 992 Z" stroke="#fafafa" fill="#fafafa" style="animation-play-state:paused" ></path>
<path d="M -48 715 L 0 802 L -14 660 Z" stroke="#fdfdfd" fill="#fdfdfd" style="animation-play-state:paused" ></path>
<path d="M 332 -1 L 163 48 L 319 51 Z" stroke="#fefefe" fill="#fefefe" style="animation-play-state:paused" ></path>
<path d="M 899 13 L 790 12 L 809 30 Z" stroke="#fbfbfb" fill="#fbfbfb" style="animation-play-state:paused" ></path>
<path d="M 712 -41 L 573 -90 L 529 -72 Z" stroke="#fdfdfd" fill="#fdfdfd" style="animation-play-state:paused" ></path>
<path d="M 922 1101 L 877 1062 L 851 995 Z" stroke="#134cc9" fill="#134cc9" style="animation-play-state:paused" ></path>
<path d="M 851 995 L 877 1062 L 875 908 Z" stroke="#144fcb" fill="#144fcb" style="animation-play-state:paused" ></path>
<path d="M 1000 908 L 870 1093 L 863 715 Z" stroke="#1551cd" fill="#1551cd" style="animation-play-state:paused" ></path>
<path d="M 23 137 L -138 271 L 69 227 Z" stroke="#ffffff" fill="#ffffff" style="animation-play-state:paused" ></path>
<path d="M -194 449 L -99 442 L -128 514 Z" stroke="#ffffff" fill="#ffffff" style="animation-play-state:paused" ></path>
<path d="M -122 923 L 84 1016 L 6 876 Z" stroke="#fcfcfc" fill="#fcfcfc" style="animation-play-state:paused" ></path>
<path d="M 6 876 L 84 1016 L 46 992 Z" stroke="#fbfbfb" fill="#fbfbfb" style="animation-play-state:paused" ></path>
<path d="M 692 1233 L 922 1101 L 730 1068 Z" stroke="#144ecb" fill="#144ecb" style="animation-play-state:paused" ></path>
<path d="M 730 1068 L 922 1101 L 708 1066 Z" stroke="#144fcb" fill="#144fcb" style="animation-play-state:paused" ></path>
<path d="M 451 1239 L 553 1187 L 368 1013 Z" stroke="#618ce3" fill="#618ce3" style="animation-play-state:paused" ></path>
<path d="M 553 1187 L 730 1224 L 633 1166 Z" stroke="#1655cf" fill="#1655cf" style="animation-play-state:paused" ></path>
<path d="M 451 1239 L 368 1013 L 391 1108 Z" stroke="#7ba0e9" fill="#7ba0e9" style="animation-play-state:paused" ></path>
<path d="M 1002 207 L 966 123 L 819 219 Z" stroke="#f5faff" fill="#f5faff" style="animation-play-state:paused" ></path>
<path d="M 899 13 L 781 74 L 790 12 Z" stroke="#fbfbfb" fill="#fbfbfb" style="animation-play-state:paused" ></path>
<path d="M -209 977 L -122 923 L 0 802 Z" stroke="#fdfdfd" fill="#fdfdfd" style="animation-play-state:paused" ></path>
<path d="M 0 802 L -122 923 L -21 800 Z" stroke="#fcfcfc" fill="#fcfcfc" style="animation-play-state:paused" ></path>
<path d="M 174 14 L 38 168 L 96 167 Z" stroke="#ffffff" fill="#ffffff" style="animation-play-state:paused" ></path>
<path d="M 96 167 L 23 137 L 69 227 Z" stroke="#ffffff" fill="#ffffff" style="animation-play-state:paused" ></path>
<path d="M 107 -54 L 38 168 L 174 14 Z" stroke="#ffffff" fill="#ffffff" style="animation-play-state:paused" ></path>
<path d="M -20 1005 L 141 1120 L 46 992 Z" stroke="#fbfbfb" fill="#fbfbfb" style="animation-play-state:paused" ></path>
<path d="M 272 1249 L 451 1239 L 391 1108 Z" stroke="#84a8eb" fill="#84a8eb" style="animation-play-state:paused" ></path>
<path d="M 247 1139 L 141 1120 L 117 1248 Z" stroke="#e7f0fd" fill="#e7f0fd" style="animation-play-state:paused" ></path>
<path d="M -194 449 L -128 514 L -58 446 Z" stroke="#ffffff" fill="#ffffff" style="animation-play-state:paused" ></path>
<path d="M -31 565 L -82 659 L -48 715 Z" stroke="#fdfdfd" fill="#fdfdfd" style="animation-play-state:paused" ></path>
<path d="M -48 715 L -82 659 L 0 802 Z" stroke="#fdfdfd" fill="#fdfdfd" style="animation-play-state:paused" ></path>
<path d="M 272 1249 L 391 1108 L 290 1065 Z" stroke="#9fbdf0" fill="#9fbdf0" style="animation-play-state:paused" ></path>
<path d="M -115 179 L 23 137 L 96 167 Z" stroke="#ffffff" fill="#ffffff" style="animation-play-state:paused" ></path>
<path d="M -138 271 L -194 449 L -58 446 Z" stroke="#ffffff" fill="#ffffff" style="animation-play-state:paused" ></path>
<path d="M -134 649 L -82 659 L -31 565 Z" stroke="#fefefe" fill="#fefefe" style="animation-play-state:paused" ></path>
<path d="M 966 123 L 781 74 L 899 13 Z" stroke="#fbfbfb" fill="#fbfbfb" style="animation-play-state:paused" ></path>
<path d="M -99 442 L -134 649 L -31 565 Z" stroke="#fefefe" fill="#fefefe" style="animation-play-state:paused" ></path>
<path d="M -141 227 L -194 449 L -138 271 Z" stroke="#ffffff" fill="#ffffff" style="animation-play-state:paused" ></path>
<path d="M -99 442 L -194 449 L -134 649 Z" stroke="#ffffff" fill="#ffffff" style="animation-play-state:paused" ></path>
<path d="M 247 1139 L 272 1249 L 290 1065 Z" stroke="#b5cef4" fill="#b5cef4" style="animation-play-state:paused" ></path>
<path d="M 451 1239 L 730 1224 L 464 1238 Z" stroke="#3267d7" fill="#3267d7" style="animation-play-state:paused" ></path>
<path d="M 114 -39 L 84 -6 L 163 48 Z" stroke="#ffffff" fill="#ffffff" style="animation-play-state:paused" ></path>
<path d="M 163 48 L 84 -6 L 319 51 Z" stroke="#ffffff" fill="#ffffff" style="animation-play-state:paused" ></path>
<path d="M 464 1238 L 730 1224 L 553 1187 Z" stroke="#1f5bd2" fill="#1f5bd2" style="animation-play-state:paused" ></path>
<path d="M 272 1249 L 730 1224 L 451 1239 Z" stroke="#517edf" fill="#517edf" style="animation-play-state:paused" ></path>
<path d="M 712 -41 L 653 -74 L 790 12 Z" stroke="#fcfcfc" fill="#fcfcfc" style="animation-play-state:paused" ></path>
<path d="M 712 -41 L 529 -72 L 653 -74 Z" stroke="#fdfdfd" fill="#fdfdfd" style="animation-play-state:paused" ></path>
<path d="M 332 -1 L 245 -142 L 163 48 Z" stroke="#ffffff" fill="#ffffff" style="animation-play-state:paused" ></path>
<path d="M 780 -154 L 712 -41 L 790 12 Z" stroke="#fcfcfc" fill="#fcfcfc" style="animation-play-state:paused" ></path>
<path d="M 573 -90 L 382 -188 L 347 -17 Z" stroke="#fefefe" fill="#fefefe" style="animation-play-state:paused" ></path>
<path d="M 141 1120 L 247 1139 L 290 1065 Z" stroke="#cddff8" fill="#cddff8" style="animation-play-state:paused" ></path>
<path d="M -20 1005 L 46 992 L 84 1016 Z" stroke="#fbfbfb" fill="#fbfbfb" style="animation-play-state:paused" ></path>
<path d="M 382 -188 L 396 -188 L 347 -17 Z" stroke="#ffffff" fill="#ffffff" style="animation-play-state:paused" ></path>
<path d="M 730 1224 L 692 1233 L 730 1068 Z" stroke="#1551cc" fill="#1551cc" style="animation-play-state:paused" ></path>
<path d="M -134 649 L -206 762 L -82 659 Z" stroke="#fefefe" fill="#fefefe" style="animation-play-state:paused" ></path>
<path d="M -82 659 L -206 762 L 0 802 Z" stroke="#fdfdfd" fill="#fdfdfd" style="animation-play-state:paused" ></path>
<path d="M 38 168 L -115 179 L 96 167 Z" stroke="#ffffff" fill="#ffffff" style="animation-play-state:paused" ></path>
<path d="M 84 -6 L 107 -54 L 174 14 Z" stroke="#ffffff" fill="#ffffff" style="animation-play-state:paused" ></path>
<path d="M 109 -37 L 107 -54 L 84 -6 Z" stroke="#ffffff" fill="#ffffff" style="animation-play-state:paused" ></path>
<path d="M -89 914 L 84 1016 L -122 923 Z" stroke="#fcfcfc" fill="#fcfcfc" style="animation-play-state:paused" ></path>
<path d="M -89 914 L -20 1005 L 84 1016 Z" stroke="#fcfcfc" fill="#fcfcfc" style="animation-play-state:paused" ></path>
<path d="M 781 74 L 780 -154 L 790 12 Z" stroke="#fcfcfc" fill="#fcfcfc" style="animation-play-state:paused" ></path>
<path d="M 712 -41 L 609 -199 L 573 -90 Z" stroke="#fdfdfd" fill="#fdfdfd" style="animation-play-state:paused" ></path>
<path d="M -209 977 L -89 914 L -122 923 Z" stroke="#fdfdfd" fill="#fdfdfd" style="animation-play-state:paused" ></path>
<path d="M -158 178 L -138 271 L 23 137 Z" stroke="#ffffff" fill="#ffffff" style="animation-play-state:paused" ></path>
<path d="M -158 178 L -141 227 L -138 271 Z" stroke="#ffffff" fill="#ffffff" style="animation-play-state:paused" ></path>
<path d="M -194 449 L -141 227 L -134 649 Z" stroke="#ffffff" fill="#ffffff" style="animation-play-state:paused" ></path>
<path d="M 409 -274 L 245 -142 L 396 -188 Z" stroke="#ffffff" fill="#ffffff" style="animation-play-state:paused" ></path>
<path d="M 396 -188 L 245 -142 L 332 -1 Z" stroke="#ffffff" fill="#ffffff" style="animation-play-state:paused" ></path>
<path d="M 1002 207 L 964 -1 L 966 123 Z" stroke="#fafafa" fill="#fafafa" style="animation-play-state:paused" ></path>
<path d="M 966 123 L 964 -1 L 781 74 Z" stroke="#fbfbfb" fill="#fbfbfb" style="animation-play-state:paused" ></path>
<path d="M 781 74 L 748 -166 L 780 -154 Z" stroke="#fcfcfc" fill="#fcfcfc" style="animation-play-state:paused" ></path>
<path d="M 107 -54 L -115 179 L 38 168 Z" stroke="#ffffff" fill="#ffffff" style="animation-play-state:paused" ></path>
<path d="M -20 1005 L 117 1248 L 141 1120 Z" stroke="#fafafa" fill="#fafafa" style="animation-play-state:paused" ></path>
<path d="M 247 1139 L 49 1159 L 272 1249 Z" stroke="#dbe8fb" fill="#dbe8fb" style="animation-play-state:paused" ></path>
<path d="M 49 1159 L 117 1248 L -20 1005 Z" stroke="#fbfbfb" fill="#fbfbfb" style="animation-play-state:paused" ></path>
<path d="M 922 1101 L 870 1093 L 877 1062 Z" stroke="#134ac8" fill="#134ac8" style="animation-play-state:paused" ></path>
<path d="M 877 1062 L 870 1093 L 1000 908 Z" stroke="#134cc9" fill="#134cc9" style="animation-play-state:paused" ></path>
<path d="M 863 715 L 870 1093 L 1002 207 Z" stroke="#4171db" fill="#4171db" style="animation-play-state:paused" ></path>
<path d="M 861 1187 L 870 1093 L 922 1101 Z" stroke="#1349c7" fill="#1349c7" style="animation-play-state:paused" ></path>
<path d="M -122 107 L -158 178 L 23 137 Z" stroke="#ffffff" fill="#ffffff" style="animation-play-state:paused" ></path>
<path d="M -206 762 L -209 977 L 0 802 Z" stroke="#fdfdfd" fill="#fdfdfd" style="animation-play-state:paused" ></path>
<path d="M -89 914 L -128 1096 L -20 1005 Z" stroke="#fcfcfc" fill="#fcfcfc" style="animation-play-state:paused" ></path>
<path d="M 730 1224 L 861 1187 L 692 1233 Z" stroke="#144eca" fill="#144eca" style="animation-play-state:paused" ></path>
<path d="M 692 1233 L 861 1187 L 922 1101 Z" stroke="#134bc8" fill="#134bc8" style="animation-play-state:paused" ></path>
<path d="M 245 -142 L 114 -39 L 163 48 Z" stroke="#ffffff" fill="#ffffff" style="animation-play-state:paused" ></path>
<path d="M -125 50 L -122 107 L -115 179 Z" stroke="#ffffff" fill="#ffffff" style="animation-play-state:paused" ></path>
<path d="M 1023 -175 L 748 -166 L 781 74 Z" stroke="#fcfcfc" fill="#fcfcfc" style="animation-play-state:paused" ></path>
<path d="M 667 -245 L 609 -199 L 712 -41 Z" stroke="#fdfdfd" fill="#fdfdfd" style="animation-play-state:paused" ></path>
<path d="M 573 -90 L 473 -174 L 382 -188 Z" stroke="#fefefe" fill="#fefefe" style="animation-play-state:paused" ></path>
<path d="M 667 -245 L 712 -41 L 659 -212 Z" stroke="#fdfdfd" fill="#fdfdfd" style="animation-play-state:paused" ></path>
<path d="M 382 -188 L 409 -274 L 396 -188 Z" stroke="#ffffff" fill="#ffffff" style="animation-play-state:paused" ></path>
<path d="M 245 -142 L 165 -275 L 114 -39 Z" stroke="#ffffff" fill="#ffffff" style="animation-play-state:paused" ></path>
<path d="M -197 996 L -128 1096 L -89 914 Z" stroke="#fdfdfd" fill="#fdfdfd" style="animation-play-state:paused" ></path>
<path d="M -125 50 L -115 179 L 107 -54 Z" stroke="#ffffff" fill="#ffffff" style="animation-play-state:paused" ></path>
<path d="M -115 179 L -122 107 L 23 137 Z" stroke="#ffffff" fill="#ffffff" style="animation-play-state:paused" ></path>
<path d="M -158 178 L -122 107 L -141 227 Z" stroke="#ffffff" fill="#ffffff" style="animation-play-state:paused" ></path>
<path d="M 609 -199 L 473 -174 L 573 -90 Z" stroke="#fefefe" fill="#fefefe" style="animation-play-state:paused" ></path>
<path d="M -47 1213 L 49 1159 L -20 1005 Z" stroke="#fbfbfb" fill="#fbfbfb" style="animation-play-state:paused" ></path>
<path d="M 117 1248 L 49 1159 L 247 1139 Z" stroke="#f9f9f9" fill="#f9f9f9" style="animation-play-state:paused" ></path>
<path d="M 659 -212 L 712 -41 L 780 -154 Z" stroke="#fdfdfd" fill="#fdfdfd" style="animation-play-state:paused" ></path>
<path d="M 609 -199 L 667 -245 L 473 -174 Z" stroke="#fefefe" fill="#fefefe" style="animation-play-state:paused" ></path>
<path d="M -209 977 L -197 996 L -89 914 Z" stroke="#fdfdfd" fill="#fdfdfd" style="animation-play-state:paused" ></path>
<path d="M -206 762 L -197 996 L -209 977 Z" stroke="#fefefe" fill="#fefefe" style="animation-play-state:paused" ></path>
<path d="M -187 1072 L -197 996 L -206 762 Z" stroke="#fefefe" fill="#fefefe" style="animation-play-state:paused" ></path>
<path d="M 473 -174 L 409 -274 L 382 -188 Z" stroke="#ffffff" fill="#ffffff" style="animation-play-state:paused" ></path>
<path d="M 165 -275 L 109 -37 L 114 -39 Z" stroke="#ffffff" fill="#ffffff" style="animation-play-state:paused" ></path>
<path d="M 114 -39 L 109 -37 L 84 -6 Z" stroke="#ffffff" fill="#ffffff" style="animation-play-state:paused" ></path>
<path d="M 964 -1 L 1023 -175 L 781 74 Z" stroke="#fcfcfc" fill="#fcfcfc" style="animation-play-state:paused" ></path>
<path d="M 748 -166 L 659 -212 L 780 -154 Z" stroke="#fdfdfd" fill="#fdfdfd" style="animation-play-state:paused" ></path>
<path d="M 1002 207 L 1023 -175 L 964 -1 Z" stroke="#fbfbfb" fill="#fbfbfb" style="animation-play-state:paused" ></path>
<path d="M 272 1249 L 935 1296 L 730 1224 Z" stroke="#1655cf" fill="#1655cf" style="animation-play-state:paused" ></path>
<path d="M 730 1224 L 935 1296 L 861 1187 Z" stroke="#1349c7" fill="#1349c7" style="animation-play-state:paused" ></path>
<path d="M 861 1187 L 935 1296 L 870 1093 Z" stroke="#1247c6" fill="#1247c6" style="animation-play-state:paused" ></path>
<path d="M 109 -37 L -125 50 L 107 -54 Z" stroke="#ffffff" fill="#ffffff" style="animation-play-state:paused" ></path>
<path d="M 938 -261 L 659 -212 L 748 -166 Z" stroke="#fefefe" fill="#fefefe" style="animation-play-state:paused" ></path>
<path d="M 409 -274 L 279 -187 L 245 -142 Z" stroke="#ffffff" fill="#ffffff" style="animation-play-state:paused" ></path>
<path d="M 1023 -175 L 938 -261 L 748 -166 Z" stroke="#fdfdfd" fill="#fdfdfd" style="animation-play-state:paused" ></path>
<path d="M -110 1257 L -47 1213 L -128 1096 Z" stroke="#fcfcfc" fill="#fcfcfc" style="animation-play-state:paused" ></path>
<path d="M -128 1096 L -47 1213 L -20 1005 Z" stroke="#fcfcfc" fill="#fcfcfc" style="animation-play-state:paused" ></path>
<path d="M 49 1159 L -47 1213 L 272 1249 Z" stroke="#fafafa" fill="#fafafa" style="animation-play-state:paused" ></path>
<path d="M 272 1249 L -47 1213 L 935 1296 Z" stroke="#7ba1e9" fill="#7ba1e9" style="animation-play-state:paused" ></path>
<path d="M -134 649 L -187 1072 L -206 762 Z" stroke="#fefefe" fill="#fefefe" style="animation-play-state:paused" ></path>
<path d="M -197 996 L -187 1072 L -128 1096 Z" stroke="#fdfdfd" fill="#fdfdfd" style="animation-play-state:paused" ></path>
<path d="M -141 227 L -187 1072 L -134 649 Z" stroke="#fefefe" fill="#fefefe" style="animation-play-state:paused" ></path>
<path d="M 48 -191 L 165 -275 L 409 -274 Z" stroke="#ffffff" fill="#ffffff" style="animation-play-state:paused" ></path>
<path d="M 409 -274 L 165 -275 L 279 -187 Z" stroke="#ffffff" fill="#ffffff" style="animation-play-state:paused" ></path>
<path d="M 279 -187 L 165 -275 L 245 -142 Z" stroke="#ffffff" fill="#ffffff" style="animation-play-state:paused" ></path>
<path d="M 109 -37 L -40 -141 L -125 50 Z" stroke="#ffffff" fill="#ffffff" style="animation-play-state:paused" ></path>
<path d="M 48 -191 L -40 -141 L 109 -37 Z" stroke="#ffffff" fill="#ffffff" style="animation-play-state:paused" ></path>
<path d="M -125 50 L -212 -24 L -122 107 Z" stroke="#ffffff" fill="#ffffff" style="animation-play-state:paused" ></path>
<path d="M -172 -41 L -212 -24 L -125 50 Z" stroke="#ffffff" fill="#ffffff" style="animation-play-state:paused" ></path>
<path d="M -122 107 L -212 -24 L -141 227 Z" stroke="#ffffff" fill="#ffffff" style="animation-play-state:paused" ></path>
<path d="M 1023 -175 L 1012 -174 L 938 -261 Z" stroke="#fdfdfd" fill="#fdfdfd" style="animation-play-state:paused" ></path>
<path d="M 938 -261 L 1012 -174 L 659 -212 Z" stroke="#fdfdfd" fill="#fdfdfd" style="animation-play-state:paused" ></path>
<path d="M 659 -212 L 1012 -174 L 667 -245 Z" stroke="#fefefe" fill="#fefefe" style="animation-play-state:paused" ></path>
<path d="M 473 -174 L 48 -191 L 409 -274 Z" stroke="#ffffff" fill="#ffffff" style="animation-play-state:paused" ></path>
<path d="M 165 -275 L 48 -191 L 109 -37 Z" stroke="#ffffff" fill="#ffffff" style="animation-play-state:paused" ></path>
<path d="M -40 -141 L -172 -41 L -125 50 Z" stroke="#ffffff" fill="#ffffff" style="animation-play-state:paused" ></path>
<path d="M -221 -233 L -172 -41 L -40 -141 Z" stroke="#ffffff" fill="#ffffff" style="animation-play-state:paused" ></path>
<path d="M -187 1072 L -110 1257 L -128 1096 Z" stroke="#fdfdfd" fill="#fdfdfd" style="animation-play-state:paused" ></path>
<path d="M 48 -191 L -85 -202 L -40 -141 Z" stroke="#ffffff" fill="#ffffff" style="animation-play-state:paused" ></path>
<path d="M -85 -202 L -221 -233 L -40 -141 Z" stroke="#ffffff" fill="#ffffff" style="animation-play-state:paused" ></path>
<path d="M -172 -41 L -221 -233 L -212 -24 Z" stroke="#ffffff" fill="#ffffff" style="animation-play-state:paused" ></path></g>
<style type="text/css" style="animation-play-state:paused" >#bk-0.37320470500726843 path { stroke-width: 1 }</style></g></svg>